:SAMPLES-PER-SECOND 30
:FULLY-SPECIFIED
:DEGREES
435
root  83.5591 37.8227 0.450079 -146.614 -83.1076 141.483
RightUpLeg  -24.2667 -1.08093 -10.0378
RightLeg  40.4091 0.71018 0.373817
RightFoot  -4.77033 -0.561062 9.19084
RightToes  -3.0268e-009 0 -3.6325e-017
Spine  11.7238 0.443161 -6.47937
Spine1  6.63549 -0.131751 -0.660376
HEad  -10.9372 -40.3995 6.41933
LeftShoulder1  -0.920625 5.72312 -35.2746
LeftArm  7.12106 7.51414 -43.0549
LeftForeArm  18.2056 -20.65 -4.64323
LeftHand  0.0863976 13.6946 2.21216
RightShoulder  -1.26759 -6.79174 32.0305
RightArm  27.9254 -11.2527 41.3516
RightForeArm  5.50762 18.5182 5.6404
RightHand  -0.447413 7.1025 -4.50356
LeftUpLeg  -0.86106 1.89396 -10.1476
LeftLeg  20.2612 3.36817 1.73946
LeftFoot  -16.2629 0.447985 8.12399
LeftToes  2.52475e-009 -1.26109e-010 3.16044e-011
436
root  82.8801 37.817 0.278856 -138.867 -84.0892 134.013
RightUpLeg  -24.87 -2.2586 -9.66607
RightLeg  31.8521 1.48535 0.766788
RightFoot  -5.1662 -0.565546 9.80178
RightToes  -3.0268e-009 0 -3.6325e-017
Spine  12.0807 0.340938 -5.99599
Spine1  5.91141 -0.145216 -0.405467
HEad  -11.4248 -40.9316 7.79872
LeftShoulder1  -0.856001 5.56858 -35.2534
LeftArm  9.09831 8.92817 -42.7232
LeftForeArm  18.4449 -23.2862 -4.1077
LeftHand  0.103736 10.7441 3.33259
RightShoulder  -1.26645 -6.75424 32.4298
RightArm  28.4227 -12.0086 40.5316
RightForeArm  5.0512 18.7753 5.57435
RightHand  -0.453888 7.28579 -4.51045
LeftUpLeg  0.272109 1.27161 -9.96238
LeftLeg  19.7444 2.85189 1.62647
LeftFoot  -16.8975 0.519336 8.58875
LeftToes  2.52475e-009 -1.26109e-010 3.16044e-011
437
root  82.2193 37.7951 0.0987565 -120.324 -85.7097 116.005
RightUpLeg  -24.8127 -5.52847 -8.69916
RightLeg  22.8469 2.00679 0.71771
RightFoot  -5.08303 -0.587201 10.0895
RightToes  -3.0268e-009 0 -3.6325e-017
Spine  12.3534 -0.252939 -5.55964
Spine1  5.29853 -0.833767 0.433804
HEad  -11.7615 -41.1893 8.61434
LeftShoulder1  -0.848404 5.56034 -35.0556
LeftArm  8.64159 9.73533 -42.6373
LeftForeArm  19.5051 -25.5585 -4.42541
LeftHand  0.0518047 8.97982 3.03868
RightShoulder  -1.28255 -6.79265 32.468
RightArm  29.0244 -12.765 40.0219
RightForeArm  5.01284 19.6616 5.2584
RightHand  -0.360305 7.23209 -3.67806
LeftUpLeg  0.847323 0.197957 -9.43866
LeftLeg  19.8914 1.63951 1.2375
LeftFoot  -17.7741 0.59834 8.72673
LeftToes  2.52475e-009 -1.26109e-010 3.16044e-011
438
root  81.3765 37.6849 -0.0981048 -105.564 -85.7694 101.317
RightUpLeg  -24.5176 -7.39014 -8.16535
RightLeg  16.0788 2.41703 0.570391
RightFoot  -5.31215 -0.611829 10.8932
RightToes  -3.0268e-009 0 -3.6325e-017
Spine  11.7118 -0.247061 -5.68558
Spine1  6.02031 -0.935743 1.12105
HEad  -12.3222 -41.1677 9.54286
LeftShoulder1  -0.866697 5.60753 -35.0006
LeftArm  7.8453 9.56814 -42.9485
LeftForeArm  19.9584 -26.6453 -4.65759
LeftHand  0.0161149 7.92475 2.54555
RightShoulder  -1.31185 -6.85655 32.5951
RightArm  29.1324 -13.0087 39.583
RightForeArm  4.3152 20.0406 5.16269
RightHand  -0.388747 6.1796 -4.2097
LeftUpLeg  2.21395 -0.461388 -9.58321
LeftLeg  19.9685 1.40107 1.17082
LeftFoot  -19.0457 0.696433 8.62299
LeftToes  2.52475e-009 -1.26109e-010 3.16044e-011
439
root  80.4279 37.5733 -0.293931 -101.933 -85.3245 97.1636
RightUpLeg  -23.6451 -7.29854 -8.15735
RightLeg  12.2359 2.35908 0.214198
RightFoot  -5.10104 -0.587848 10.1237
RightToes  -3.0268e-009 0 -3.6325e-017
Spine  11.3303 0.069086 -5.40459
Spine1  6.93741 -0.613129 1.22712
HEad  -12.2751 -41.677 10.0899
LeftShoulder1  -0.858428 5.60046 -34.7482
LeftArm  7.4473 9.22374 -43.5318
LeftForeArm  20.4743 -27.7812 -4.88315
LeftHand  0.0305329 8.36834 2.77758
RightShoulder  -1.38454 -7.01464 32.914
RightArm  29.0004 -13.1355 39.1614
RightForeArm  3.45255 20.1119 5.17372
RightHand  -0.506792 7.19216 -5.02868
LeftUpLeg  4.73785 -0.289925 -9.78195
LeftLeg  19.3211 1.16759 1.0819
LeftFoot  -20.3028 0.783066 8.41531
LeftToes  2.52475e-009 -1.26109e-010 3.16044e-011
440
root  79.3975 37.4085 -0.501068 -89.8977 -85.0498 84.8462
RightUpLeg  -23.2059 -6.42042 -8.69315
RightLeg  12.1949 2.32466 0.0357285
RightFoot  -4.95666 -0.506122 8.36887
RightToes  -3.0268e-009 0 -3.6325e-017
Spine  10.912 0.0149287 -5.36814
Spine1  7.36439 -0.864083 1.93137
HEad  -12.1389 -41.4397 9.54583
LeftShoulder1  -0.827377 5.52761 -34.6907
LeftArm  6.34315 8.79262 -44.1432
LeftForeArm  21.1126 -28.3715 -4.98264
LeftHand  -0.0326938 8.1409 0.42646
RightShoulder  -1.34903 -6.95204 32.6012
RightArm  28.2881 -13.4494 39.1768
RightForeArm  4.4741 19.8495 5.18171
RightHand  -0.504056 6.56854 -5.22277
LeftUpLeg  6.88969 -0.916775 -9.8946
LeftLeg  19.231 0.765833 0.935063
LeftFoot  -21.634 0.860487 8.09719
LeftToes  2.52475e-009 -1.26109e-010 3.16044e-011
441
root  78.2702 37.2332 -0.717708 -82.51 -85.2197 77.5569
RightUpLeg  -23.1875 -4.78934 -8.65072
RightLeg  14.4553 1.71337 0.0405526
RightFoot  -3.36526 -0.537185 7.753
RightToes  -3.0268e-009 0 -3.6325e-017
Spine  9.89495 -0.027783 -4.17039
Spine1  7.8949 -0.858078 2.08835
HEad  -12.1896 -41.3738 8.95278
LeftShoulder1  -0.835111 5.53692 -34.8745
LeftArm  6.2268 8.24185 -44.6682
LeftForeArm  21.7609 -29.001 -5.09132
LeftHand  -0.022721 8.83124 0.802826
RightShoulder  -1.37666 -7.00064 32.8478
RightArm  26.9516 -13.0891 38.81
RightForeArm  5.70519 18.4673 5.53272
RightHand  -0.490703 6.75263 -5.07209
LeftUpLeg  8.66579 -1.86927 -9.47403
LeftLeg  19.4797 1.03779 0.928602
LeftFoot  -23.1995 0.935861 7.64982
LeftToes  2.52475e-009 -1.26109e-010 3.16044e-011
442
root  77.1715 37.0831 -0.942774 -66.9727 -85.7144 62.4896
RightUpLeg  -24.2566 -5.09585 -7.49118
RightLeg  18.2296 0.783328 0.0892371
RightFoot  1.41981 -0.508542 4.49743
RightToes  -3.0268e-009 0 -3.6325e-017
Spine  9.30524 -0.353092 -2.07413
Spine1  7.68335 -1.06342 2.26061
HEad  -11.7271 -41.5054 9.17518
LeftShoulder1  -0.749325 5.33644 -34.6964
LeftArm  6.1297 8.36729 -44.9655
LeftForeArm  21.9943 -30.0964 -5.33626
LeftHand  -0.0311136 7.18836 0.518138
RightShoulder  -1.38456 -7.00545 33.0081
RightArm  25.0009 -12.418 38.4741
RightForeArm  7.73816 16.5936 6.08786
RightHand  -0.413925 7.79535 -4.06277
LeftUpLeg  10.0572 -3.88041 -8.73058
LeftLeg  19.5474 2.6234 1.4011
LeftFoot  -24.4887 0.98267 7.23644
LeftToes  2.52475e-009 -1.26109e-010 3.16044e-011
443
root  76.0109 36.8722 -1.19483 -42.55 -86.5598 38.3404
RightUpLeg  -24.9445 -5.58262 -5.65283
RightLeg  22.2604 1.16755 0.309786
RightFoot  2.44468 -0.561222 4.76332
RightToes  -3.0268e-009 0 -3.6325e-017
Spine  10.2522 -0.782197 0.902247
Spine1  5.38696 -1.17615 1.82608
HEad  -11.0365 -42.6103 8.12115
LeftShoulder1  -0.829831 5.52013 -34.9662
LeftArm  7.23996 8.68249 -44.5779
LeftForeArm  22.4042 -31.8883 -5.74229
LeftHand  -0.0194739 7.213 0.573414
RightShoulder  -1.44524 -7.10989 33.5483
RightArm  22.9883 -11.2486 37.537
RightForeArm  9.14128 14.1062 6.89299
RightHand  -0.5675 5.83536 -6.15641
LeftUpLeg  10.7982 -5.13999 -6.92143
LeftLeg  21.6446 3.00749 1.64991
LeftFoot  -26.1696 0.986574 6.37281
LeftToes  2.52475e-009 -1.26109e-010 3.16044e-011
444
root  74.8408 36.7365 -1.4032 -17.4257 -87.2992 13.2035
RightUpLeg  -25.2893 -5.34474 -3.61638
RightLeg  26.4324 1.25155 0.453477
RightFoot  1.01572 -0.263206 2.4875
RightToes  -3.0268e-009 0 -3.6325e-017
Spine  8.86194 -0.68823 4.15164
Spine1  7.1423 -0.809424 1.51413
HEad  -12.5812 -42.7073 8.38348
LeftShoulder1  -0.638894 5.0589 -34.8876
LeftArm  7.71538 7.52911 -45.5366
LeftForeArm  22.0068 -32.8539 -6.00551
LeftHand  0.00141295 10.1008 1.32069
RightShoulder  -1.39137 -6.97325 33.5519
RightArm  18.1385 -8.7219 37.6817
RightForeArm  12.1235 10.9487 7.24345
RightHand  -0.505722 6.38384 -5.31412
LeftUpLeg  11.3104 -5.5897 -5.01845
LeftLeg  24.7603 2.9986 1.84971
LeftFoot  -26.5834 0.697269 4.02246
LeftToes  2.52475e-009 -1.26109e-010 3.16044e-011
445
root  73.7849 36.6418 -1.67363 8.61841 -87.0515 -12.9584
RightUpLeg  -25.0752 -5.80137 -1.93122
RightLeg  29.6596 1.3223 0.572949
RightFoot  -0.742259 -0.0429401 0.40693
RightToes  -3.0268e-009 0 -3.6325e-017
Spine  9.4627 -0.834921 6.37268
Spine1  6.83111 -0.705884 1.83631
HEad  -12.7607 -42.6606 8.34777
LeftShoulder1  -0.578717 4.92184 -34.6349
LeftArm  8.68959 6.97417 -45.8348
LeftForeArm  22.8791 -33.7897 -6.19397
LeftHand  -0.0459005 8.47008 0.0575501
RightShoulder  -1.49319 -7.18096 34.0635
RightArm  15.8705 -5.43852 37.5312
RightForeArm  12.96 8.05858 7.45111
RightHand  -0.498646 6.19025 -5.32083
LeftUpLeg  10.4972 -5.36916 -2.90382
LeftLeg  30.018 1.55822 1.2917
LeftFoot  -25.4197 0.18997 0.201998
LeftToes  2.52475e-009 -1.26109e-010 3.16044e-011
446
root  72.7232 36.5813 -1.97445 16.3403 -87.2776 -20.6025
RightUpLeg  -24.7502 -5.27351 -0.960672
RightLeg  32.2668 0.744412 0.255022
RightFoot  -3.47216 0.00902783 -0.454441
RightToes  -3.0268e-009 0 -3.6325e-017
Spine  10.0102 -0.680576 7.48807
Spine1  5.93058 -0.300815 2.17074
HEad  -12.1685 -42.3305 8.20616
LeftShoulder1  -0.675812 5.16064 -34.551
LeftArm  10.0054 6.72848 -45.6245
LeftForeArm  22.818 -35.0245 -6.51754
LeftHand  -0.0323371 8.8159 0.522414
RightShoulder  -1.41787 -7.01922 33.8041
RightArm  14.3498 -2.81096 38.0383
RightForeArm  13.3952 5.84072 7.24295
RightHand  -0.455994 5.72687 -5.09853
LeftUpLeg  8.06327 -3.59731 -0.875825
LeftLeg  37.4104 -1.02447 -0.497528
LeftFoot  -21.3679 -0.266114 -4.32898
LeftToes  2.52475e-009 -1.26109e-010 3.16044e-011
447
root  71.7281 36.606 -2.29322 25.3954 -86.1528 -29.6249
RightUpLeg  -23.6125 -5.20776 0.330238
RightLeg  33.6013 -0.162125 -0.375192
RightFoot  -5.71558 0.00602163 -0.914429
RightToes  -3.0268e-009 0 -3.6325e-017
Spine  10.0598 -0.906409 8.81717
Spine1  5.75184 -0.304279 2.54713
HEad  -11.837 -42.3601 9.11245
LeftShoulder1  -0.534615 4.80443 -34.3147
LeftArm  10.3989 6.46265 -45.6225
LeftForeArm  24.7325 -36.3536 -6.76613
LeftHand  -0.0226214 8.11438 0.834782
RightShoulder  -1.40216 -6.96054 33.7468
RightArm  13.2897 -0.323815 38.5673
RightForeArm  13.0487 5.66658 6.93637
RightHand  -0.433266 4.54537 -5.36054
LeftUpLeg  4.36434 -2.38996 1.89137
LeftLeg  45.5627 -2.47583 -2.25522
LeftFoot  -13.0152 0.026414 -4.8533
LeftToes  2.52475e-009 -1.26109e-010 3.16044e-011
448
root  70.8181 36.6518 -2.56269 21.5356 -85.7092 -25.6173
RightUpLeg  -22.6939 -4.89415 0.675257
RightLeg  34.761 -0.906924 -0.944943
RightFoot  -7.69719 -0.00626055 -1.43417
RightToes  -3.0268e-009 0 -3.6325e-017
Spine  10.5625 -1.44944 8.40266
Spine1  5.27538 -1.06787 3.929
HEad  -12.0185 -40.1733 9.27041
LeftShoulder1  -1.22811 6.39519 -36.3292
LeftArm  11.3913 5.41618 -43.6346
LeftForeArm  25.4684 -38.7039 -7.37783
LeftHand  -0.0307979 7.48674 0.520416
RightShoulder  -0.836817 -5.77064 30.4796
RightArm  11.3404 1.49337 41.854
RightForeArm  13.0082 6.09194 6.36277
RightHand  -0.421511 5.93228 -4.62739
LeftUpLeg  -0.619241 -1.27658 2.90882
LeftLeg  53.8104 -1.6194 -1.8519
LeftFoot  -4.00424 0.347331 -5.50284
LeftToes  2.52475e-009 -1.26109e-010 3.16044e-011
449
root  69.9278 36.7413 -2.81688 18.9624 -84.7104 -23.4011
RightUpLeg  -20.8295 -5.08166 1.21406
RightLeg  35.2009 -1.65316 -1.52454
RightFoot  -9.43091 -0.03416 -1.76524
RightToes  -3.0268e-009 0 -3.6325e-017
Spine  10.881 -1.39947 9.75428
Spine1  5.37069 -0.486777 3.0017
HEad  -11.7191 -41.4816 10.2046
LeftShoulder1  -0.903244 5.69041 -35.0338
LeftArm  10.6431 5.51157 -44.4597
LeftForeArm  26.4363 -40.0541 -7.719
LeftHand  -0.0260168 8.11951 0.739939
RightShoulder  -1.06403 -6.32898 31.0606
RightArm  11.9683 3.71776 41.5532
RightForeArm  10.6815 8.81654 6.484
RightHand  -0.477825 6.48333 -5.00466
LeftUpLeg  -4.88272 -0.746838 3.8118
LeftLeg  60.2469 -0.252214 0.0821943
LeftFoot  0.650127 0.317064 -2.9325
LeftToes  2.52475e-009 -1.26109e-010 3.16044e-011
